<?xml version="1.0" encoding="UTF-8" standalone="no"?>
<svg
   xmlns:dc="http://purl.org/dc/elements/1.1/"
   xmlns:cc="http://creativecommons.org/ns#"
   xmlns:rdf="http://www.w3.org/1999/02/22-rdf-syntax-ns#"
   xmlns:svg="http://www.w3.org/2000/svg"
   xmlns="http://www.w3.org/2000/svg"
   xmlns:xlink="http://www.w3.org/1999/xlink"
   xmlns:sodipodi="http://sodipodi.sourceforge.net/DTD/sodipodi-0.dtd"
   xmlns:inkscape="http://www.inkscape.org/namespaces/inkscape"
   viewBox="0 0 150 150"
   height="150"
   width="150"
   xml:space="preserve"
   id="svg2"
   version="1.1"
   sodipodi:docname="ajax.svg"
   inkscape:version="0.92.1 r15371"
   inkscape:export-filename="C:\Users\Jakub\Downloads\technologie-webowe\css.png"
   inkscape:export-xdpi="96"
   inkscape:export-ydpi="96"><sodipodi:namedview
     pagecolor="#ffffff"
     bordercolor="#666666"
     borderopacity="1"
     objecttolerance="10"
     gridtolerance="10"
     guidetolerance="10"
     inkscape:pageopacity="0"
     inkscape:pageshadow="2"
     inkscape:window-width="1920"
     inkscape:window-height="1001"
     id="namedview22"
     showgrid="false"
     fit-margin-top="0"
     fit-margin-left="0"
     fit-margin-right="0"
     fit-margin-bottom="0"
     inkscape:zoom="2.4976717"
     inkscape:cx="148.97304"
     inkscape:cy="59.103224"
     inkscape:window-x="-9"
     inkscape:window-y="-9"
     inkscape:window-maximized="1"
     inkscape:current-layer="svg2" /><metadata
     id="metadata8"><rdf:RDF><cc:Work
         rdf:about=""><dc:format>image/svg+xml</dc:format><dc:type
           rdf:resource="http://purl.org/dc/dcmitype/StillImage" /><dc:title></dc:title></cc:Work></rdf:RDF></metadata><defs
     id="defs6"><clipPath
       id="clipPath38"
       clipPathUnits="userSpaceOnUse"><path
         id="path36"
         d="M 0,141.732 H 141.732 V 0 H 0 Z"
         inkscape:connector-curvature="0" /></clipPath><linearGradient
       inkscape:collect="always"
       xlink:href="#linearGradient4222"
       id="linearGradient4228"
       x1="162.67442"
       y1="14.452718"
       x2="162.67442"
       y2="175.03487"
       gradientUnits="userSpaceOnUse" /><linearGradient
       inkscape:collect="always"
       id="linearGradient4222"><stop
         style="stop-color:#70b0df;stop-opacity:1"
         offset="0"
         id="stop4224" /><stop
         id="stop4230"
         offset="0.5"
         style="stop-color:#1b81c5;stop-opacity:1" /><stop
         style="stop-color:#4a98ce;stop-opacity:1"
         offset="1"
         id="stop4226" /></linearGradient></defs><g
     transform="matrix(0.39786168,0,0,0.39838707,-4.4704902,36.628588)"
     id="g4500"
     style="stroke-width:2.51177835"><g
       transform="translate(0,2)"
       style="fill:#8c96a1;fill-opacity:1;stroke-width:2.51177835"
       id="g4204"><path
         inkscape:connector-curvature="0"
         id="path4206"
         d="M 48.822266,90.923828 12.205078,172.94141 h 23.949219 l 7.119141,-17.38282 h 36.802734 l 7.11914,17.38282 H 111.14453 L 74.435547,90.923828 Z m 13.005859,19.337892 6.212891,15.5957 6.21289,15.59766 -12.388672,0.0293 -12.388672,0.0312 6.175782,-15.62695 6.175781,-15.62695 z"
         style="fill:#8c96a1;fill-opacity:1;fill-rule:evenodd;stroke:none;stroke-width:2.51177835px;stroke-linecap:butt;stroke-linejoin:miter;stroke-opacity:1" /><path
         inkscape:connector-curvature="0"
         style="fill:#8c96a1;fill-opacity:1;fill-rule:evenodd;stroke:none;stroke-width:2.51177835px;stroke-linecap:butt;stroke-linejoin:miter;stroke-opacity:1"
         d="m 226.42503,90.923828 -36.61718,82.017582 h 23.94922 l 7.11914,-17.38282 h 36.80273 l 7.11914,17.38282 H 288.7473 L 252.03832,90.923828 Z m 13.00586,19.337892 6.21289,15.5957 6.21289,15.59766 -12.38867,0.0293 -12.38867,0.0312 6.17578,-15.62695 6.17578,-15.62695 z"
         id="path4208" /><path
         inkscape:connector-curvature="0"
         id="path4210"
         d="m 295.01111,90.641009 h 27.19958 l 17.39204,26.153451 18.43818,-26.153451 h 26.80728 l -32.29951,39.753241 34.39178,42.82998 h -27.19958 l -19.74585,-27.92252 -19.35355,27.92252 h -29.03032 l 35.04561,-42.43768 z"
         style="fill:#8c96a1;fill-opacity:1;fill-rule:evenodd;stroke:none;stroke-width:2.51177835px;stroke-linecap:butt;stroke-linejoin:miter;stroke-opacity:1" /><path
         inkscape:connector-curvature="0"
         id="path4212"
         d="m 179.94141,55.929688 -32.56055,32.02539 11.20898,10.142578 10.60352,-10.660156 1.18359,0.002 v 61.1543 c 0,7.76349 -6.25018,14.01367 -14.01367,14.01367 h -11.13476 c -7.76349,0 -14.01368,-6.25018 -14.01368,-14.01367 v -6.52734 h -21.65039 v 8.1289 c 0,14.03603 11.29991,25.33594 25.33594,25.33594 h 28.76563 c 14.03602,0 25.33593,-11.29991 25.33593,-25.33594 V 87.482469 l 0.83789,0.002 12.38672,10.613281 9.74024,-10.142578 -32.02539,-32.02539 z"
         style="color:#000000;clip-rule:nonzero;display:inline;overflow:visible;visibility:visible;opacity:1;isolation:auto;mix-blend-mode:normal;color-interpolation:sRGB;color-interpolation-filters:linearRGB;solid-color:#000000;solid-opacity:1;fill:#8c96a1;fill-opacity:1;fill-rule:nonzero;stroke:none;stroke-width:11.30300331;stroke-linecap:round;stroke-linejoin:miter;stroke-miterlimit:4;stroke-dasharray:none;stroke-dashoffset:0;stroke-opacity:1;marker:none;color-rendering:auto;image-rendering:auto;shape-rendering:auto;text-rendering:auto;enable-background:accumulate" /><path
         inkscape:connector-curvature="0"
         style="color:#000000;clip-rule:nonzero;display:inline;overflow:visible;visibility:visible;opacity:1;isolation:auto;mix-blend-mode:normal;color-interpolation:sRGB;color-interpolation-filters:linearRGB;solid-color:#000000;solid-opacity:1;fill:#8c96a1;fill-opacity:1;fill-rule:nonzero;stroke:none;stroke-width:11.30300331;stroke-linecap:round;stroke-linejoin:miter;stroke-miterlimit:4;stroke-dasharray:none;stroke-dashoffset:0;stroke-opacity:1;marker:none;color-rendering:auto;image-rendering:auto;shape-rendering:auto;text-rendering:auto;enable-background:accumulate"
         d="m 120.2293,135.33257 32.56055,-32.02539 -11.20898,-10.142583 -10.60352,10.660153 -1.18359,-0.002 V 42.668455 c 0,-7.76349 6.25018,-14.01367 14.01367,-14.01367 h 11.13476 c 7.76349,0 14.01368,6.25018 14.01368,14.01367 v 6.52734 h 21.65039 v -8.1289 c 0,-14.03603 -11.29991,-25.33594 -25.33594,-25.33594 h -28.76563 c -14.03602,0 -25.33593,11.29991 -25.33593,25.33594 v 62.712895 l -0.83789,-0.002 -12.386718,-10.613293 -9.74024,10.142583 32.025388,32.02539 z"
         id="path4214" /></g><path
       inkscape:connector-curvature="0"
       id="path3338"
       d="m 136.50391,15.730469 c -14.03602,0 -25.33594,11.299907 -25.33594,25.335937 V 103.7793 l -0.83789,-0.002 -12.386721,-10.613278 -9.740234,10.142578 32.025395,32.02539 32.56054,-32.02539 -11.20898,-10.142578 -10.60352,10.660158 -1.18359,-0.002 V 42.667969 c 0,-7.76349 6.25018,-14.013672 14.01367,-14.013672 h 11.13477 c 7.76349,0 14.01367,6.250182 14.01367,14.013672 v 6.527343 h 21.65039 v -8.128906 c 0,-14.03603 -11.29991,-25.335937 -25.33594,-25.335937 z m 43.4375,40.199219 -32.56055,32.02539 11.20898,10.142578 10.60352,-10.660156 1.18359,0.002 v 61.1543 c 0,7.76349 -6.25018,14.01367 -14.01367,14.01367 h -11.13476 c -7.76349,0 -14.01368,-6.25018 -14.01368,-14.01367 v -6.52734 h -21.65039 v 8.1289 c 0,14.03603 11.29991,25.33594 25.33594,25.33594 h 28.76563 c 14.03602,0 25.33593,-11.29991 25.33593,-25.33594 V 87.482422 l 0.83789,0.002 12.38672,10.613281 9.74024,-10.142578 z m 115.07031,34.710937 31.64453,40.146485 -35.04492,42.4375 h 29.02929 l 19.35352,-27.92383 19.74609,27.92383 h 27.20118 L 352.54883,130.39453 384.84766,90.640625 H 358.04102 L 339.60352,116.79492 322.21094,90.640625 Z M 48.822266,90.923828 12.205078,172.94141 h 23.949219 l 7.119141,-17.38282 h 36.802734 l 7.11914,17.38282 H 111.14453 L 74.435547,90.923828 Z m 177.603514,0 -36.61719,82.017582 h 23.94922 l 7.11914,-17.38282 h 36.80274 l 7.11914,17.38282 h 23.94922 L 252.03906,90.923828 Z m -164.597655,19.337892 6.212891,15.5957 6.21289,15.59766 -12.388672,0.0293 -12.388672,0.0312 6.175782,-15.62695 z m 177.603515,0 6.21289,15.5957 6.21289,15.59766 -12.38867,0.0293 -12.38867,0.0312 6.17578,-15.62695 z"
       style="fill:url(#linearGradient4228);fill-opacity:1;fill-rule:evenodd;stroke:#0c4c75;stroke-width:1.25588918;stroke-linecap:butt;stroke-linejoin:miter;stroke-miterlimit:4;stroke-dasharray:none;stroke-opacity:1" /></g></svg>