<?xml version="1.0" encoding="UTF-8" standalone="no"?>
<svg
   xmlns:dc="http://purl.org/dc/elements/1.1/"
   xmlns:cc="http://creativecommons.org/ns#"
   xmlns:rdf="http://www.w3.org/1999/02/22-rdf-syntax-ns#"
   xmlns:svg="http://www.w3.org/2000/svg"
   xmlns="http://www.w3.org/2000/svg"
   xmlns:sodipodi="http://sodipodi.sourceforge.net/DTD/sodipodi-0.dtd"
   xmlns:inkscape="http://www.inkscape.org/namespaces/inkscape"
   viewBox="0 0 150 150"
   height="150"
   width="150"
   xml:space="preserve"
   id="svg2"
   version="1.1"
   sodipodi:docname="bootstrap.svg"
   inkscape:version="0.92.1 r15371"
   inkscape:export-filename="C:\Users\Jakub\Downloads\technologie-webowe\bootstrap.png"
   inkscape:export-xdpi="96"
   inkscape:export-ydpi="96"><sodipodi:namedview
     pagecolor="#ffffff"
     bordercolor="#666666"
     borderopacity="1"
     objecttolerance="10"
     gridtolerance="10"
     guidetolerance="10"
     inkscape:pageopacity="0"
     inkscape:pageshadow="2"
     inkscape:window-width="1920"
     inkscape:window-height="1001"
     id="namedview22"
     showgrid="false"
     fit-margin-top="0"
     fit-margin-left="0"
     fit-margin-right="0"
     fit-margin-bottom="0"
     inkscape:zoom="2.4976717"
     inkscape:cx="148.97304"
     inkscape:cy="59.103224"
     inkscape:window-x="-9"
     inkscape:window-y="-9"
     inkscape:window-maximized="1"
     inkscape:current-layer="svg2" /><metadata
     id="metadata8"><rdf:RDF><cc:Work
         rdf:about=""><dc:format>image/svg+xml</dc:format><dc:type
           rdf:resource="http://purl.org/dc/dcmitype/StillImage" /><dc:title></dc:title></cc:Work></rdf:RDF></metadata><defs
     id="defs6"><clipPath
       id="clipPath38"
       clipPathUnits="userSpaceOnUse"><path
         id="path36"
         d="M 0,141.732 H 141.732 V 0 H 0 Z"
         inkscape:connector-curvature="0" /></clipPath></defs><g
     id="g4493"
     transform="scale(0.24509804)"
     style="stroke-width:4.07999992"><path
       style="fill:#563d7c;stroke-width:4.07999992"
       inkscape:connector-curvature="0"
       id="path4"
       d="m 612,510 c 0,56.1 -45.9,102 -102,102 H 102 C 45.9,612 0,566.1 0,510 V 102 C 0,45.9 45.9,0 102,0 h 408 c 56.1,0 102,45.9 102,102 z" /><path
       style="fill:#ffffff;stroke-width:4.07999992"
       inkscape:connector-curvature="0"
       id="path6"
       d="m 166.3,133 h 173.5 c 32,0 57.7,7.3 77,22 19.3,14.7 29,36.8 29,66.5 0,18 -4.4,33.4 -13.2,46.2 -8.8,12.8 -21.4,22.8 -37.8,29.8 v 1 c 22,4.7 38.7,15.1 50,31.2 11.3,16.2 17,36.4 17,60.8 0,14 -2.5,27.1 -7.5,39.2 -5,12.2 -12.8,22.7 -23.5,31.5 -10.7,8.8 -24.3,15.8 -41,21 -16.7,5.2 -36.5,7.8 -59.5,7.8 h -164 z m 62.5,149.5 h 102 c 15,0 27.5,-4.2 37.5,-12.8 10,-8.6 15,-20.8 15,-36.8 0,-18 -4.5,-30.7 -13.5,-38 -9,-7.3 -22,-11 -39,-11 h -102 z m 0,156.5 h 110.5 c 19,0 33.8,-4.9 44.2,-14.8 10.5,-9.8 15.8,-23.8 15.8,-41.8 0,-17.7 -5.2,-31.2 -15.8,-40.8 -10.6,-9.6 -25.2,-14.2 -44.2,-14.2 H 228.8 Z" /></g></svg>