<?xml version="1.0" encoding="UTF-8" standalone="no"?>
<svg
   xmlns:dc="http://purl.org/dc/elements/1.1/"
   xmlns:cc="http://creativecommons.org/ns#"
   xmlns:rdf="http://www.w3.org/1999/02/22-rdf-syntax-ns#"
   xmlns:svg="http://www.w3.org/2000/svg"
   xmlns="http://www.w3.org/2000/svg"
   xmlns:sodipodi="http://sodipodi.sourceforge.net/DTD/sodipodi-0.dtd"
   xmlns:inkscape="http://www.inkscape.org/namespaces/inkscape"
   viewBox="0 0 150 150"
   height="150"
   width="150"
   xml:space="preserve"
   id="svg2"
   version="1.1"
   sodipodi:docname="html.svg"
   inkscape:version="0.92.1 r15371"
   inkscape:export-filename="C:\Users\Jakub\Downloads\technologie-webowe\javascript.png"
   inkscape:export-xdpi="96"
   inkscape:export-ydpi="96"><sodipodi:namedview
     pagecolor="#ffffff"
     bordercolor="#666666"
     borderopacity="1"
     objecttolerance="10"
     gridtolerance="10"
     guidetolerance="10"
     inkscape:pageopacity="0"
     inkscape:pageshadow="2"
     inkscape:window-width="1920"
     inkscape:window-height="1001"
     id="namedview22"
     showgrid="false"
     fit-margin-top="0"
     fit-margin-left="0"
     fit-margin-right="0"
     fit-margin-bottom="0"
     inkscape:zoom="2.4976717"
     inkscape:cx="148.97304"
     inkscape:cy="59.103224"
     inkscape:window-x="-9"
     inkscape:window-y="-9"
     inkscape:window-maximized="1"
     inkscape:current-layer="svg2" /><metadata
     id="metadata8"><rdf:RDF><cc:Work
         rdf:about=""><dc:format>image/svg+xml</dc:format><dc:type
           rdf:resource="http://purl.org/dc/dcmitype/StillImage" /><dc:title></dc:title></cc:Work></rdf:RDF></metadata><defs
     id="defs6"><clipPath
       id="clipPath38"
       clipPathUnits="userSpaceOnUse"><path
         id="path36"
         d="M 0,141.732 H 141.732 V 0 H 0 Z"
         inkscape:connector-curvature="0" /></clipPath></defs><g
     id="g5069"
     transform="matrix(0.29296875,0,0,0.29296875,5.334354e-4,-0.01348376)"
     style="stroke-width:3.41333342"><path
       id="path4503"
       d="m 108.4,0 h 23 v 22.8 h 21.2 V 0 h 23 v 69 h -23 V 46 h -21 V 69 H 108.4 M 206,23 H 185.7 V 0 h 63.7 V 23 H 229 V 69 H 206 M 259.5,0 h 24.1 L 298.4,24.3 313.2,0 h 24.1 v 69 h -23 V 34.8 L 298.2,59.6 282.1,34.8 V 69 H 259.5 M 348.7,0 h 23 v 46.2 h 32.6 V 69 h -55.6"
       inkscape:connector-curvature="0"
       style="stroke-width:3.41333342" /><path
       id="path4505"
       d="M 107.6,471 74.6,100.6 H 437.4 L 404.4,470.8 255.7,512"
       inkscape:connector-curvature="0"
       style="fill:#e44d26;stroke-width:11.65084457" /><path
       id="path4507"
       d="M 256,480.5 V 131 H 404.3 L 376,447"
       inkscape:connector-curvature="0"
       style="fill:#f16529;stroke-width:11.65084457" /><path
       id="path4509"
       d="m 142,176.3 h 114 v 45.4 h -64.2 l 4.2,46.5 h 60 v 45.3 H 154.4 m 2,22.8 H 202 l 3.2,36.3 50.8,13.6 v 47.4 l -93.2,-26"
       inkscape:connector-curvature="0"
       style="fill:#ebebeb;stroke-width:11.65084457" /><path
       id="path4511"
       d="M 369.6,176.3 H 255.8 v 45.4 h 109.6 m -4.1,46.5 H 255.8 v 45.4 h 56 l -5.3,59 -50.7,13.6 v 47.2 l 93,-25.8"
       inkscape:connector-curvature="0"
       style="fill:#ffffff;stroke-width:11.65084457" /></g></svg>