<?xml version="1.0" encoding="UTF-8" standalone="no"?>
<svg
   xmlns:dc="http://purl.org/dc/elements/1.1/"
   xmlns:cc="http://creativecommons.org/ns#"
   xmlns:rdf="http://www.w3.org/1999/02/22-rdf-syntax-ns#"
   xmlns:svg="http://www.w3.org/2000/svg"
   xmlns="http://www.w3.org/2000/svg"
   xmlns:sodipodi="http://sodipodi.sourceforge.net/DTD/sodipodi-0.dtd"
   xmlns:inkscape="http://www.inkscape.org/namespaces/inkscape"
   viewBox="0 0 150 150"
   height="150"
   width="150"
   xml:space="preserve"
   id="svg2"
   version="1.1"
   sodipodi:docname="javascript.svg"
   inkscape:version="0.92.1 r15371"><sodipodi:namedview
     pagecolor="#ffffff"
     bordercolor="#666666"
     borderopacity="1"
     objecttolerance="10"
     gridtolerance="10"
     guidetolerance="10"
     inkscape:pageopacity="0"
     inkscape:pageshadow="2"
     inkscape:window-width="1920"
     inkscape:window-height="1001"
     id="namedview22"
     showgrid="false"
     fit-margin-top="0"
     fit-margin-left="0"
     fit-margin-right="0"
     fit-margin-bottom="0"
     inkscape:zoom="2.4976717"
     inkscape:cx="148.97304"
     inkscape:cy="59.103224"
     inkscape:window-x="-9"
     inkscape:window-y="-9"
     inkscape:window-maximized="1"
     inkscape:current-layer="svg2" /><metadata
     id="metadata8"><rdf:RDF><cc:Work
         rdf:about=""><dc:format>image/svg+xml</dc:format><dc:type
           rdf:resource="http://purl.org/dc/dcmitype/StillImage" /><dc:title></dc:title></cc:Work></rdf:RDF></metadata><defs
     id="defs6"><clipPath
       id="clipPath38"
       clipPathUnits="userSpaceOnUse"><path
         id="path36"
         d="M 0,141.732 H 141.732 V 0 H 0 Z"
         inkscape:connector-curvature="0" /></clipPath></defs><g
     transform="matrix(1.3229076,0,0,-1.3229076,-18.749298,168.74877)"
     id="g10"
     style="stroke-width:1.00788081"><g
       transform="translate(111.1416,105.3364)"
       id="g12"
       style="stroke-width:1.00788081"><path
         id="path14"
         style="fill:#e6a329;fill-opacity:1;fill-rule:nonzero;stroke:none;stroke-width:1.00788081"
         d="m 0,0 h -40.275 -40.276 l 7.548,-81.885 32.728,-9.279 32.715,9.279 z"
         inkscape:connector-curvature="0" /></g><g
       transform="translate(70.8662,98.666)"
       id="g16"
       style="stroke-width:1.00788081"><path
         id="path18"
         style="fill:#f1bf22;fill-opacity:1;fill-rule:nonzero;stroke:none;stroke-width:1.00788081"
         d="M 0,0 V -77.559 L 26.502,-70.046 32.956,0 Z"
         inkscape:connector-curvature="0" /></g><g
       transform="translate(91.9512,88.6182)"
       id="g20"
       style="stroke-width:1.00788081"><path
         id="path22"
         style="fill:#ffffff;fill-opacity:1;fill-rule:nonzero;stroke:none;stroke-width:1.00788081"
         d="m 0,0 h -40.763 l -2.833,-30.66 0.06,0.192 H -8.91 l -1.13,-12.969 -11.045,-3.184 -11.214,3.232 -0.673,7.849 h -10.18 l 1.455,-15.685 20.612,-5.853 20.612,5.853 2.837,30.781 h -36.742 l 0.468,10.264 h 25.503 l 0.375,-5.875 H 2.239 Z"
         inkscape:connector-curvature="0" /></g><g
       transform="translate(58.9795,53.0781)"
       id="g24"
       style="stroke-width:1.00788081"><path
         id="path26"
         style="fill:#ebebeb;fill-opacity:1;fill-rule:nonzero;stroke:none;stroke-width:1.00788081"
         d="m 0,0 h -10.18 l 1.454,-15.685 20.613,-5.84 v 10.444 L 0.673,-7.849 Z M 11.887,35.54 H -7.792 l -2.833,-30.66 0.061,0.192 H 11.887 V 15.096 H 0.011 L 0.479,25.36 h 11.408 z"
         inkscape:connector-curvature="0" /></g><g
       transform="translate(63.0278,117.415)"
       id="g28"
       style="stroke-width:1.00788081"><path
         id="path30"
         style="fill:#231f20;fill-opacity:1;fill-rule:nonzero;stroke:none;stroke-width:1.00788081"
         d="M 0,0 H -7.163 V -5.144 H 0 3.835 5.133 V 10.144 H 0 Z"
         inkscape:connector-curvature="0" /></g><g
       id="g32"
       style="stroke-width:1.00788081"><g
         clip-path="url(#clipPath38)"
         id="g34"
         style="stroke-width:1.00788081"><g
           transform="translate(85.8682,127.4814)"
           id="g40"
           style="stroke-width:1.00788081"><path
             id="path42"
             style="fill:#231f20;fill-opacity:1;fill-rule:nonzero;stroke:none;stroke-width:1.00788081"
             d="m 0,0 h -12.494 v -5.354 c 1.67,-1.671 2.543,-2.471 4.961,-4.889 -1.414,0 -4.961,-0.005 -4.961,-0.005 v -4.884 H 0 v 4.885 l -4.99,4.893 H 0 Z"
             inkscape:connector-curvature="0" /></g></g></g></g></svg>